{
  "accessors": [
    {
      "bufferView": 2,
      "componentType": 5126,
      "count": 12316,
      "max": [
        1.58466637134552,
        0.12020272761583328,
        1.3426523208618164
      ],
      "min": [
        -0.5268175005912781,
        -3.024566411972046,
        -1.1443989276885986
      ],
      "type": "VEC3"
    },
    {
      "bufferView": 2,
      "byteOffset": 147792,
      "componentType": 5126,
      "count": 12316,
      "max": [
        0.9995923042297363,
        0.9999715089797974,
        0.9999710321426392
      ],
      "min": [
        -0.9995769262313843,
        -0.9999518394470215,
        -0.9998780488967896
      ],
      "type": "VEC3"
    },
    {
      "bufferView": 1,
      "componentType": 5126,
      "count": 12316,
      "max": [
        0.0,
        0.0
      ],
      "min": [
        0.0,
        0.0
      ],
      "type": "VEC2"
    },
    {
      "bufferView": 0,
      "componentType": 5125,
      "count": 73884,
      "type": "SCALAR"
    },
    {
      "bufferView": 2,
      "byteOffset": 295584,
      "componentType": 5126,
      "count": 1529,
      "max": [
        1.053670048713684,
        -1.4980264902114868,
        0.4520321488380432
      ],
      "min": [
        -0.11731011420488358,
        -2.070657253265381,
        -0.6464053392410278
      ],
      "type": "VEC3"
    },
    {
      "bufferView": 2,
      "byteOffset": 313932,
      "componentType": 5126,
      "count": 1529,
      "max": [
        0.9826077818870544,
        0.9999212026596069,
        0.9960906505584717
      ],
      "min": [
        -0.9614109396934509,
        -0.9927478432655334,
        -0.6443201303482056
      ],
      "type": "VEC3"
    },
    {
      "bufferView": 1,
      "byteOffset": 98528,
      "componentType": 5126,
      "count": 1529,
      "max": [
        0.0,
        0.0
      ],
      "min": [
        0.0,
        0.0
      ],
      "type": "VEC2"
    },
    {
      "bufferView": 0,
      "byteOffset": 295536,
      "componentType": 5125,
      "count": 8016,
      "type": "SCALAR"
    },
    {
      "bufferView": 2,
      "byteOffset": 332280,
      "componentType": 5126,
      "count": 2424,
      "max": [
        1.2759491205215454,
        0.7753982543945313,
        0.18999481201171875
      ],
      "min": [
        -0.3417853116989136,
        -0.4110107719898224,
        -0.24669446051120758
      ],
      "type": "VEC3"
    },
    {
      "bufferView": 2,
      "byteOffset": 361368,
      "componentType": 5126,
      "count": 2424,
      "max": [
        0.9987232089042664,
        0.9999954700469971,
        0.9997380971908569
      ],
      "min": [
        -0.999535083770752,
        -0.999815821647644,
        -0.999946117401123
      ],
      "type": "VEC3"
    },
    {
      "bufferView": 1,
      "byteOffset": 110760,
      "componentType": 5126,
      "count": 2424,
      "max": [
        1.0000001192092896,
        0.9865462779998779
      ],
      "min": [
        0.0,
        0.0
      ],
      "type": "VEC2"
    },
    {
      "bufferView": 0,
      "byteOffset": 327600,
      "componentType": 5125,
      "count": 13374,
      "type": "SCALAR"
    },
    {
      "bufferView": 2,
      "byteOffset": 390456,
      "componentType": 5126,
      "count": 3669,
      "max": [
        1.201925277709961,
        1.2478349208831787,
        1.5380909442901611
      ],
      "min": [
        -0.28457754850387573,
        -0.7801990509033203,
        -1.0417084693908691
      ],
      "type": "VEC3"
    },
    {
      "bufferView": 2,
      "byteOffset": 434484,
      "componentType": 5126,
      "count": 3669,
      "max": [
        0.9999998807907104,
        0.9973728060722351,
        0.9938859343528748
      ],
      "min": [
        -0.9999765157699585,
        -0.9998784065246582,
        -0.9964617490768433
      ],
      "type": "VEC3"
    },
    {
      "bufferView": 1,
      "byteOffset": 130152,
      "componentType": 5126,
      "count": 3669,
      "max": [
        1.000000238418579,
        1.0000001192092896
      ],
      "min": [
        -5.960465188081798e-08,
        0.0
      ],
      "type": "VEC2"
    },
    {
      "bufferView": 0,
      "byteOffset": 381096,
      "componentType": 5125,
      "count": 13110,
      "type": "SCALAR"
    },
    {
      "bufferView": 2,
      "byteOffset": 478512,
      "componentType": 5126,
      "count": 6092,
      "max": [
        1.2801228761672974,
        -0.3187221884727478,
        1.1477547883987427
      ],
      "min": [
        -0.27727019786834717,
        -2.174363136291504,
        -0.2916581332683563
      ],
      "type": "VEC3"
    },
    {
      "bufferView": 2,
      "byteOffset": 551616,
      "componentType": 5126,
      "count": 6092,
      "max": [
        0.9996166229248047,
        0.9997748136520386,
        0.9992166757583618
      ],
      "min": [
        -0.9999414682388306,
        -0.9998548030853271,
        -0.9994535446166992
      ],
      "type": "VEC3"
    },
    {
      "bufferView": 1,
      "byteOffset": 159504,
      "componentType": 5126,
      "count": 6092,
      "max": [
        0.0,
        0.0
      ],
      "min": [
        0.0,
        0.0
      ],
      "type": "VEC2"
    },
    {
      "bufferView": 0,
      "byteOffset": 433536,
      "componentType": 5125,
      "count": 36468,
      "type": "SCALAR"
    },
    {
      "bufferView": 2,
      "byteOffset": 624720,
      "componentType": 5126,
      "count": 2547,
      "max": [
        1.3875017166137695,
        -0.5078232884407043,
        1.2441229820251465
      ],
      "min": [
        -0.4154205024242401,
        -2.0300002098083496,
        -0.5773463845252991
      ],
      "type": "VEC3"
    },
    {
      "bufferView": 2,
      "byteOffset": 655284,
      "componentType": 5126,
      "count": 2547,
      "max": [
        0.5985410213470459,
        0.9998791217803955,
        0.9996353387832642
      ],
      "min": [
        -0.8233116865158081,
        -0.9999512434005737,
        -0.5980897545814514
      ],
      "type": "VEC3"
    },
    {
      "bufferView": 1,
      "byteOffset": 208240,
      "componentType": 5126,
      "count": 2547,
      "max": [
        0.0,
        0.0
      ],
      "min": [
        0.0,
        0.0
      ],
      "type": "VEC2"
    },
    {
      "bufferView": 0,
      "byteOffset": 579408,
      "componentType": 5125,
      "count": 14874,
      "type": "SCALAR"
    }
  ],
  "asset": {
    "extras": {
      "author": "hectopod (https://sketchfab.com/hectopod)",
      "license": "CC-BY-4.0 (http://creativecommons.org/licenses/by/4.0/)",
      "source": "https://sketchfab.com/3d-models/courage-the-cowardly-dog-a926c0f03c00439d88d050391e062c2d",
      "title": "Courage the Cowardly Dog"
    },
    "generator": "Sketchfab-11.53.2",
    "version": "2.0"
  },
  "bufferViews": [
    {
      "buffer": 0,
      "byteLength": 638904,
      "name": "floatBufferViews",
      "target": 34963
    },
    {
      "buffer": 0,
      "byteLength": 228616,
      "byteOffset": 638904,
      "byteStride": 8,
      "name": "floatBufferViews",
      "target": 34962
    },
    {
      "buffer": 0,
      "byteLength": 685848,
      "byteOffset": 867520,
      "byteStride": 12,
      "name": "floatBufferViews",
      "target": 34962
    }
  ],
  "buffers": [
    {
      "byteLength": 1553368,
      "uri": "scene.bin"
    }
  ],
  "materials": [
    {
      "doubleSided": true,
      "name": "Material.002",
      "pbrMetallicRoughness": {
        "baseColorFactor": [
          0.8,
          0.231131,
          0.413848,
          1.0
        ],
        "metallicFactor": 0.0,
        "roughnessFactor": 0.5
      }
    },
    {
      "doubleSided": true,
      "name": "Material.004",
      "pbrMetallicRoughness": {
        "baseColorFactor": [
          0.317293,
          0.0316212,
          0.0167292,
          1.0
        ],
        "metallicFactor": 0.0,
        "roughnessFactor": 0.820856
      }
    },
    {
      "doubleSided": true,
      "name": "Material",
      "pbrMetallicRoughness": {
        "baseColorFactor": [
          0.8,
          0.8,
          0.8,
          1.0
        ],
        "metallicFactor": 0.0,
        "roughnessFactor": 0.820856
      }
    },
    {
      "doubleSided": true,
      "name": "Material.001",
      "pbrMetallicRoughness": {
        "baseColorFactor": [
          0.049275,
          0.0354217,
          0.0318348,
          1.0
        ],
        "metallicFactor": 0.0,
        "roughnessFactor": 0.820856
      }
    },
    {
      "doubleSided": true,
      "name": "Material.003",
      "pbrMetallicRoughness": {
        "baseColorFactor": [
          0.8,
          0.755523,
          0.426002,
          1.0
        ],
        "metallicFactor": 0.0,
        "roughnessFactor": 0.820856
      }
    },
    {
      "doubleSided": true,
      "name": "Material.005",
      "pbrMetallicRoughness": {
        "baseColorFactor": [
          0.47984,
          0.101144,
          0.0989546,
          1.0
        ],
        "metallicFactor": 0.0,
        "roughnessFactor": 0.820856
      }
    }
  ],
  "meshes": [
    {
      "name": "Object_0",
      "primitives": [
        {
          "attributes": {
            "NORMAL": 1,
            "POSITION": 0,
            "TEXCOORD_0": 2
          },
          "indices": 3,
          "material": 0,
          "mode": 4
        }
      ]
    },
    {
      "name": "Object_1",
      "primitives": [
        {
          "attributes": {
            "NORMAL": 5,
            "POSITION": 4,
            "TEXCOORD_0": 6
          },
          "indices": 7,
          "material": 1,
          "mode": 4
        }
      ]
    },
    {
      "name": "Object_2",
      "primitives": [
        {
          "attributes": {
            "NORMAL": 9,
            "POSITION": 8,
            "TEXCOORD_0": 10
          },
          "indices": 11,
          "material": 2,
          "mode": 4
        }
      ]
    },
    {
      "name": "Object_3",
      "primitives": [
        {
          "attributes": {
            "NORMAL": 13,
            "POSITION": 12,
            "TEXCOORD_0": 14
          },
          "indices": 15,
          "material": 3,
          "mode": 4
        }
      ]
    },
    {
      "name": "Object_4",
      "primitives": [
        {
          "attributes": {
            "NORMAL": 17,
            "POSITION": 16,
            "TEXCOORD_0": 18
          },
          "indices": 19,
          "material": 4,
          "mode": 4
        }
      ]
    },
    {
      "name": "Object_5",
      "primitives": [
        {
          "attributes": {
            "NORMAL": 21,
            "POSITION": 20,
            "TEXCOORD_0": 22
          },
          "indices": 23,
          "material": 5,
          "mode": 4
        }
      ]
    }
  ],
  "nodes": [
    {
      "children": [
        1
      ],
      "matrix": [
        1.0,
        0.0,
        0.0,
        0.0,
        0.0,
        2.220446049250313e-16,
        -1.0,
        0.0,
        0.0,
        1.0,
        2.220446049250313e-16,
        0.0,
        0.0,
        0.0,
        0.0,
        1.0
      ],
      "name": "Sketchfab_model"
    },
    {
      "children": [
        2
      ],
      "name": "root"
    },
    {
      "children": [
        3
      ],
      "matrix": [
        1.0,
        0.0,
        0.0,
        0.0,
        0.0,
        2.220446049250313e-16,
        1.0,
        0.0,
        0.0,
        -1.0,
        2.220446049250313e-16,
        0.0,
        0.0,
        0.0,
        0.0,
        1.0
      ],
      "name": "GLTF_SceneRootNode"
    },
    {
      "children": [
        4,
        5,
        6,
        7,
        8,
        9
      ],
      "matrix": [
        1.0,
        0.0,
        0.0,
        0.0,
        0.0,
        1.0,
        0.0,
        0.0,
        0.0,
        0.0,
        1.0,
        0.0,
        -0.4561838209629059,
        3.365434408187866,
        -1.2634221315383911,
        1.0
      ],
      "name": "body.001_0"
    },
    {
      "mesh": 0,
      "name": "Object_4"
    },
    {
      "mesh": 1,
      "name": "Object_5"
    },
    {
      "mesh": 2,
      "name": "Object_6"
    },
    {
      "mesh": 3,
      "name": "Object_7"
    },
    {
      "mesh": 4,
      "name": "Object_8"
    },
    {
      "mesh": 5,
      "name": "Object_9"
    }
  ],
  "scene": 0,
  "scenes": [
    {
      "name": "Sketchfab_Scene",
      "nodes": [
        0
      ]
    }
  ]
}
